<svg id="Layer_1" data-name="Layer 1" xmlns="http://www.w3.org/2000/svg" viewBox="0 0 344.33 96.12"><defs><style>.cls-1{fill:#fff;}</style></defs><title>kobayashi-logo</title><path class="cls-1" d="M64.22,46.07l7,19.42H60.41L56,52.51l-3.76,4-1.6,9H40.24L46.17,32H56.51L53.83,47.11,66.43,32h10Z"/><path class="cls-1" d="M104.86,44.47,103.36,53c-1.6,8.8-8.75,13-17.21,13-6.63,0-12.89-2.31-12.89-10a15.88,15.88,0,0,1,.28-3l1.51-8.66c1.55-8.6,8.7-13.07,17.07-13.07,6.63,0,13,2.49,13,10.16A14.75,14.75,0,0,1,104.86,44.47Zm-14.06-5c-3,0-4.7,1.69-5.22,4.61l-1.6,9a6.41,6.41,0,0,0-.14,1.31c0,2.45,1.46,3.53,3.81,3.53a5.17,5.17,0,0,0,5.22-4.66l1.65-9.21a8.44,8.44,0,0,0,.09-1c0-2.29-1.61-3.56-3.81-3.56Z"/><path class="cls-1" d="M132.22,48.23v.19a6.15,6.15,0,0,1,4.51,6.21c0,.47,0,.94-.09,1.41a11.41,11.41,0,0,1-11.52,9.45h-19.8L111.2,32h19.33c4.37,0,8.28,2.45,8.28,7.29C138.81,43.44,136.55,47.11,132.22,48.23Zm-8.89,3.86h-5.4l-1,5.64h5.6a3.56,3.56,0,0,0,3.66-3.43C126.2,52.7,124.75,52.09,123.33,52.09Zm2.54-12.6h-5.69l-1,5.5H125a3.31,3.31,0,0,0,3.38-3.24V41.6C128.41,40.05,127.19,39.49,125.87,39.49Z"/><path class="cls-1" d="M159.58,65.49l-.65-5.4H147.78l-2.54,5.4h-9.78l17.21-33.57h12l5.08,33.57Zm-2.86-24.12h-.15l-5.22,11.1H158Z"/><path class="cls-1" d="M187.61,52.47l-2.3,13h-10.4l2.31-13.07L170.07,32h10.3l3.76,12.23L192.27,32H202Z"/><path class="cls-1" d="M214.43,65.49l-.66-5.4H202.62l-2.54,5.4H190.3l17.21-33.57h12l5.08,33.57Zm-2.87-24.12h-.14l-5.22,11.1h6.67Z"/><path class="cls-1" d="M251,41.84a11.3,11.3,0,0,0-6.53-2.63c-1.75,0-4.28.33-4.28,2.16,0,1.65,3.38,2.3,4.51,2.68,5.78,1.83,10.82,3.62,10.82,10.06,0,8.61-7.81,12-15.43,12-5.12,0-10.11-1-14.29-4.28l5.59-6.63a13.25,13.25,0,0,0,8.28,3.38c1.64,0,4.42-.28,4.42-2.49,0-1.08-.85-1.46-1.79-1.79-5.22-1.78-12.74-3.48-12.74-10.76,0-8.19,6.58-12,14.06-12,4.89,0,9,1,13,4.09Z"/><path class="cls-1" d="M287.17,65.49H276.83L279,53.08h-8.65l-2.21,12.41H257.83L263.75,32H274.1l-2.16,12.1h8.65L282.75,32H293.1Z"/><path class="cls-1" d="M302.74,65.49H292.4L298.32,32h10.35Z"/><path class="cls-1" d="M329.32,13.85,316.74,82.77H18L30.59,13.85H329.32M342.33,3H21.54L5,93.62H325.79Z"/></svg>